<svg width="142" height="142" viewBox="0 0 142 142" fill="none" xmlns="http://www.w3.org/2000/svg">
<circle cx="70.6308" cy="71" r="55.0446" transform="rotate(20 70.6308 71)" fill="url(#paint0_linear)"/>
<circle cx="70.6308" cy="71" r="55.0446" transform="rotate(20 70.6308 71)" fill="url(#paint1_linear)"/>
<path fill-rule="evenodd" clip-rule="evenodd" d="M64.6262 117.491C90.1287 120.981 113.632 103.137 117.122 77.6345C120.612 52.132 102.768 28.6288 77.2655 25.1385C51.763 21.6483 28.2598 39.4928 24.7695 64.9952C21.2793 90.4977 39.1238 114.001 64.6262 117.491ZM58.0833 45.4718L70.9945 38L83.9113 45.4718V51.0955L97.323 58.7762V72.5565L103.071 75.8757V90.8248L90.1538 98.302L85.575 95.6537L71 104L56.4168 95.6537L51.8463 98.302L38.9295 90.8248V75.8785L44.677 72.5537V58.7762L58.0833 51.0955V45.4718ZM79.5938 46.272L70.9945 41.2863V41.289L62.4063 46.2665L71 51.2083L79.5938 46.272ZM69.5755 53.675L60.935 48.7113V58.7762L69.5755 63.784V53.675ZM81.0595 58.7762V48.7113L72.43 53.6722V63.7757L81.0595 58.7762ZM94.4768 60.4235L83.9113 54.3818V60.4235L71 67.8953L58.0888 60.4235H58.0833V54.3873L47.5288 60.4263V70.9038L51.8463 68.4068L64.763 75.8757V90.8248L59.274 94.0037L71 100.714L82.7315 94.0037L77.237 90.8248V75.8757L90.1538 68.4068L94.4768 70.9092V60.4235ZM60.44 76.6705L51.8463 71.6985L44.677 75.8455L43.2525 76.6732L51.8463 81.6123L60.44 76.6705ZM97.323 75.851L90.1538 71.6985V71.6958L81.56 76.6732L90.1538 81.6123L98.742 76.6732L97.323 75.851ZM50.4273 84.0845L41.7868 79.1098V79.1125V89.1775L50.4273 94.1935V84.0845ZM61.9113 89.1803V79.1125L53.2818 84.0817V94.1825L53.5595 94.0175L61.9113 89.1803ZM88.7348 84.0845L80.0888 79.1098V79.1125V89.1803L88.4405 94.0147L88.7348 94.1935V84.0845ZM100.213 89.1803V79.1098L91.581 84.0845V94.1825L100.213 89.1803Z" fill="white"/>
<defs>
<linearGradient id="paint0_linear" x1="15.7028" y1="78.3919" x2="126.485" y2="71.5911" gradientUnits="userSpaceOnUse">
<stop offset="0.00052083" stop-color="#00C0FF"/>
<stop offset="1" stop-color="#4218B8"/>
</linearGradient>
<linearGradient id="paint1_linear" x1="19.0329" y1="14.4576" x2="129.572" y2="38.4457" gradientUnits="userSpaceOnUse">
<stop offset="0.00052083" stop-color="#FFE53B"/>
<stop offset="1" stop-color="#FF2525"/>
</linearGradient>
</defs>
</svg>
