<svg width="156" height="156" viewBox="0 0 156 156" fill="none" xmlns="http://www.w3.org/2000/svg">
<circle cx="77.7608" cy="77.7609" r="55.0446" transform="rotate(50 77.7608 77.7609)" fill="url(#paint0_linear)"/>
<path fill-rule="evenodd" clip-rule="evenodd" d="M71.7563 124.252C97.2587 127.742 120.762 109.898 124.252 84.3952C127.742 58.8928 109.898 35.3895 84.3955 31.8993C58.893 28.4091 35.3898 46.2535 31.8996 71.756C28.4093 97.2585 46.2538 120.762 71.7563 124.252ZM76.7762 61.178H53.5147C50.3162 61.178 47.6993 63.7404 47.6993 66.8722V97.5357C47.6993 99.4432 49.2985 101.038 51.2758 101.038H100.038C103.236 101.038 105.853 98.4752 105.853 95.3434L105.824 61.178C105.824 58.0462 103.236 55.4838 100.038 55.4838H82.5916L76.7762 61.178ZM85.005 61.178H100.038V95.3434H53.5147V66.8722H79.1896L85.005 61.178ZM94.2224 72.5665V78.2607H59.3301V72.5665H94.2224ZM94.2224 83.9549V89.6492H70.9608V83.9549H94.2224Z" fill="white"/>
<defs>
<linearGradient id="paint0_linear" x1="22.8328" y1="85.1528" x2="133.615" y2="78.352" gradientUnits="userSpaceOnUse">
<stop offset="0.00052083" stop-color="#00C0FF"/>
<stop offset="1" stop-color="#187EB8"/>
</linearGradient>
</defs>
</svg>
