<svg width="156" height="156" viewBox="0 0 156 156" fill="none" xmlns="http://www.w3.org/2000/svg">
<circle cx="77.7609" cy="77.7609" r="55.0446" transform="rotate(50 77.7609 77.7609)" fill="url(#paint0_linear)"/>
<path fill-rule="evenodd" clip-rule="evenodd" d="M71.7564 124.252C97.2588 127.742 120.762 109.898 124.252 84.3952C127.743 58.8928 109.898 35.3895 84.3956 31.8993C58.8931 28.4091 35.3899 46.2535 31.8997 71.756C28.4094 97.2585 46.2539 120.762 71.7564 124.252ZM62.3096 63.1381C63.5521 61.9144 64.25 60.2549 64.25 58.5244C64.25 56.794 63.5521 55.1344 62.3096 53.9108C61.0672 52.6872 59.3821 51.9998 57.625 51.9998C55.868 51.9998 54.1829 52.6872 52.9405 53.9108C51.698 55.1344 51 56.794 51 58.5244C51 60.2549 51.698 61.9144 52.9405 63.1381C54.1829 64.3617 55.868 65.0491 57.625 65.0491C59.3821 65.0491 61.0672 64.3617 62.3096 63.1381ZM64.25 78.0983C64.25 79.8287 63.5521 81.4883 62.3096 82.7119C61.0672 83.9355 59.3821 84.6229 57.625 84.6229C55.868 84.6229 54.1829 83.9355 52.9405 82.7119C51.698 81.4883 51 79.8287 51 78.0983C51 76.3678 51.698 74.7083 52.9405 73.4847C54.1829 72.2611 55.868 71.5736 57.625 71.5736C59.3821 71.5736 61.0672 72.2611 62.3096 73.4847C63.5521 74.7083 64.25 76.3678 64.25 78.0983ZM62.3096 102.286C61.0672 103.509 59.3821 104.197 57.625 104.197C55.868 104.197 54.1829 103.509 52.9405 102.286C51.698 101.062 51 99.4026 51 97.6722C51 95.9418 51.698 94.2822 52.9405 93.0586C54.1829 91.835 55.868 91.1476 57.625 91.1476C59.3821 91.1476 61.0672 91.835 62.3096 93.0586C63.5521 94.2822 64.25 95.9418 64.25 97.6722C64.25 99.4026 63.5521 101.062 62.3096 102.286ZM84.125 58.5244C84.125 60.2549 83.4271 61.9144 82.1846 63.1381C80.9422 64.3617 79.2571 65.0491 77.5 65.0491C75.743 65.0491 74.0579 64.3617 72.8155 63.1381C71.573 61.9144 70.875 60.2549 70.875 58.5244C70.875 56.794 71.573 55.1344 72.8155 53.9108C74.0579 52.6872 75.743 51.9998 77.5 51.9998C79.2571 51.9998 80.9422 52.6872 82.1846 53.9108C83.4271 55.1344 84.125 56.794 84.125 58.5244ZM82.1846 82.7119C80.9422 83.9355 79.2571 84.6229 77.5 84.6229C75.743 84.6229 74.0579 83.9355 72.8155 82.7119C71.573 81.4883 70.875 79.8287 70.875 78.0983C70.875 76.3678 71.573 74.7083 72.8155 73.4847C74.0579 72.2611 75.743 71.5736 77.5 71.5736C79.2571 71.5736 80.9422 72.2611 82.1846 73.4847C83.4271 74.7083 84.125 76.3678 84.125 78.0983C84.125 79.8287 83.4271 81.4883 82.1846 82.7119ZM84.125 97.6722C84.125 99.4026 83.4271 101.062 82.1846 102.286C80.9422 103.509 79.2571 104.197 77.5 104.197C75.743 104.197 74.0579 103.509 72.8155 102.286C71.573 101.062 70.875 99.4026 70.875 97.6722C70.875 95.9418 71.573 94.2822 72.8155 93.0586C74.0579 91.835 75.743 91.1476 77.5 91.1476C79.2571 91.1476 80.9422 91.835 82.1846 93.0586C83.4271 94.2822 84.125 95.9418 84.125 97.6722ZM102.06 63.1381C100.817 64.3617 99.1321 65.0491 97.375 65.0491C95.618 65.0491 93.9329 64.3617 92.6905 63.1381C91.448 61.9144 90.75 60.2549 90.75 58.5244C90.75 56.794 91.448 55.1344 92.6905 53.9108C93.9329 52.6872 95.618 51.9998 97.375 51.9998C99.1321 51.9998 100.817 52.6872 102.06 53.9108C103.302 55.1344 104 56.794 104 58.5244C104 60.2549 103.302 61.9144 102.06 63.1381ZM104 78.0983C104 79.8287 103.302 81.4883 102.06 82.7119C100.817 83.9355 99.1321 84.6229 97.375 84.6229C95.618 84.6229 93.9329 83.9355 92.6905 82.7119C91.448 81.4883 90.75 79.8287 90.75 78.0983C90.75 76.3678 91.448 74.7083 92.6905 73.4847C93.9329 72.2611 95.618 71.5736 97.375 71.5736C99.1321 71.5736 100.817 72.2611 102.06 73.4847C103.302 74.7083 104 76.3678 104 78.0983ZM102.06 102.286C100.817 103.509 99.1321 104.197 97.375 104.197C95.618 104.197 93.9329 103.509 92.6905 102.286C91.448 101.062 90.75 99.4026 90.75 97.6722C90.75 95.9418 91.448 94.2822 92.6905 93.0586C93.9329 91.835 95.618 91.1476 97.375 91.1476C99.1321 91.1476 100.817 91.835 102.06 93.0586C103.302 94.2822 104 95.9418 104 97.6722C104 99.4026 103.302 101.062 102.06 102.286Z" fill="white"/>
<defs>
<linearGradient id="paint0_linear" x1="22.8329" y1="85.1528" x2="133.615" y2="78.352" gradientUnits="userSpaceOnUse">
<stop offset="0.00052083" stop-color="#00C0FF"/>
<stop offset="1" stop-color="#187EB8"/>
</linearGradient>
</defs>
</svg>
